<?xml version="1.0" encoding="utf-8"?>
<!-- Generator: Adobe Illustrator 18.1.1, SVG Export Plug-In . SVG Version: 6.00 Build 0)  -->
<svg version="1.1" id="레이어_1" xmlns="http://www.w3.org/2000/svg" xmlns:xlink="http://www.w3.org/1999/xlink" x="0px"
	 y="0px" viewBox="0 0 200 50" enable-background="new 0 0 200 50" xml:space="preserve">
<g>
	<path d="M34.7,22.9h-2.4c-0.5,0-0.9,0.1-1.1,0.3c-0.2,0.2-0.3,0.6-0.3,1.2v4.4c0,0.6,0.1,0.9,0.3,1.2c0.2,0.2,0.6,0.3,1.1,0.3h0.9
		c1.2,0,1.7-0.7,1.7-2v-5.2C35,23,34.9,22.9,34.7,22.9z"/>
	<path d="M20.9,22.9h-1.1c-0.5,0-0.9,0.1-1.1,0.3c-0.2,0.2-0.3,0.6-0.3,1.2v1.2c0,0.2,0.1,0.3,0.3,0.3h3.4c0.2,0,0.3-0.1,0.3-0.3
		v-1.2c0-0.6-0.1-0.9-0.3-1.2C21.8,23,21.4,22.9,20.9,22.9z"/>
	<path d="M62.2,10.6H2.4c-0.3,0-0.5,0.2-0.5,0.5v29c0,0.3,0.2,0.5,0.5,0.5h59.8c0.3,0,0.5-0.2,0.5-0.5v-29
		C62.7,10.8,62.5,10.6,62.2,10.6z M13.3,32.7c0,0.2,0,0.3-0.1,0.4c-0.1,0.1-0.2,0.1-0.4,0.1h-1.5c-1.3,0-2.4-0.4-3.1-1.1
		c-0.7-0.7-1.1-1.8-1.1-3.1v-5.9c0-0.2-0.1-0.3-0.3-0.3h-1c-0.2,0-0.3,0-0.4-0.1c-0.1-0.1-0.1-0.2-0.1-0.4v-1.8
		c0-0.4,0.2-0.5,0.5-0.5h1c0.2,0,0.3-0.1,0.3-0.3v-2.5c0-0.4,0.2-0.5,0.6-0.5h2.1c0.4,0,0.5,0.2,0.5,0.5v2.5c0,0.2,0.1,0.3,0.3,0.3
		h2c0.4,0,0.5,0.2,0.5,0.5v1.8c0,0.2,0,0.3-0.1,0.4c-0.1,0.1-0.2,0.1-0.4,0.1h-2c-0.2,0-0.3,0.1-0.3,0.3v5.7c0,0.5,0.1,0.9,0.4,1.1
		c0.2,0.2,0.6,0.3,1.2,0.3h1c0.4,0,0.5,0.2,0.5,0.5V32.7z M25.5,27.6c0,0.4-0.2,0.5-0.5,0.5h-6.3c-0.2,0-0.3,0.1-0.3,0.3V29
		c0,0.5,0.1,0.9,0.3,1.1c0.2,0.2,0.6,0.3,1.1,0.3h5.1c0.4,0,0.5,0.2,0.5,0.6v1.7c0,0.2,0,0.3-0.1,0.4c-0.1,0.1-0.2,0.1-0.4,0.1h-5.6
		c-1.3,0-2.4-0.4-3.1-1.1c-0.7-0.7-1.1-1.8-1.1-3.1v-4.7c0-1.4,0.4-2.4,1.1-3.1c0.7-0.7,1.8-1.1,3.1-1.1h2c1.3,0,2.4,0.4,3.1,1.1
		c0.7,0.7,1.1,1.8,1.1,3.1V27.6z M38.2,32.7c0,0.4-0.2,0.5-0.6,0.5h-2.1c-0.4,0-0.5-0.2-0.5-0.5v-0.9h-0.1c-0.2,0.5-0.5,0.8-1,1
		c-0.5,0.2-1,0.3-1.5,0.3h-0.6c-1.3,0-2.4-0.4-3.1-1.1c-0.7-0.7-1.1-1.8-1.1-3.1v-4.7c0-1.4,0.4-2.4,1.1-3.1
		c0.7-0.7,1.8-1.1,3.1-1.1h5.8c0.4,0,0.6,0.2,0.6,0.5V32.7z M58.5,32.7c0,0.4-0.2,0.5-0.5,0.5h-2.1c-0.4,0-0.5-0.2-0.5-0.5v-8.3
		c0-0.6-0.1-0.9-0.3-1.2c-0.2-0.2-0.6-0.3-1.1-0.3h-0.6c-1.2,0-1.7,0.7-1.7,2v7.8c0,0.4-0.2,0.5-0.6,0.5h-2.1
		c-0.4,0-0.5-0.2-0.5-0.5v-8.3c0-0.6-0.1-0.9-0.3-1.2c-0.2-0.2-0.6-0.3-1.1-0.3H46c-1.2,0-1.7,0.7-1.7,2v7.8c0,0.4-0.2,0.5-0.5,0.5
		h-2.1c-0.4,0-0.5-0.2-0.5-0.5V20.6c0-0.4,0.2-0.5,0.5-0.5h2.1c0.4,0,0.5,0.2,0.5,0.5v0.9h0.1c0.2-0.4,0.5-0.7,1-1
		c0.5-0.3,1-0.4,1.7-0.4h0.7c1.5,0,2.5,0.6,3.2,1.7c0.6-1.1,1.6-1.7,3-1.7h0.7c1.3,0,2.3,0.4,2.9,1.1c0.7,0.7,1,1.8,1,3.1V32.7z"/>
</g>
<g>
	<path d="M77.5,39h-9.8c-0.7,0-1-0.4-1-1.1v-3.3c0-0.4,0.1-0.6,0.2-0.8c0.1-0.2,0.4-0.2,0.8-0.2h8.6c1.7,0,2.5-0.5,2.5-1.5v-0.3
		c0-0.8-0.7-1.6-2.1-2.4l-5.1-2.8c-1.8-0.9-3-1.9-3.9-2.9c-0.8-1-1.2-2.4-1.2-4c0-2.4,0.6-4.2,1.9-5.3c1.3-1.1,3.3-1.7,6-1.7h8.6
		c0.7,0,1,0.4,1,1.1v3.4c0,0.4-0.1,0.6-0.2,0.8c-0.1,0.2-0.4,0.2-0.8,0.2h-7.2c-1.7,0-2.5,0.4-2.5,1.3v0.3c0,0.8,0.7,1.5,2.2,2.3
		l5.2,3.1c1.8,1,3,2,3.8,3c0.7,1,1.1,2.3,1.1,4C85.6,36.7,82.9,39,77.5,39z"/>
	<path d="M94.9,39h-4.4c-0.7,0-1.1-0.4-1.1-1.1V3.8c0-0.7,0.4-1.1,1.1-1.1h4.4c0.7,0,1.1,0.4,1.1,1.1v34.1C96,38.6,95.7,39,94.9,39z
		"/>
	<path d="M113,39h-4.6c-2.7,0-4.8-0.7-6.3-2.2c-1.5-1.4-2.2-3.5-2.2-6.2v-9.5c0-2.7,0.7-4.8,2.2-6.2c1.5-1.4,3.6-2.2,6.3-2.2h4.6
		c2.7,0,4.8,0.7,6.3,2.2c1.5,1.5,2.2,3.5,2.2,6.2v9.5c0,2.7-0.7,4.8-2.2,6.2C117.8,38.2,115.7,39,113,39z M109.4,33.4h2.6
		c1.1,0,1.9-0.2,2.3-0.7c0.5-0.4,0.7-1.2,0.7-2.3v-9.1c0-1.1-0.2-1.9-0.7-2.3c-0.5-0.4-1.2-0.7-2.3-0.7h-2.6c-1.1,0-1.9,0.2-2.3,0.7
		c-0.4,0.4-0.7,1.2-0.7,2.3v9.1c0,1.1,0.2,1.9,0.7,2.3C107.5,33.1,108.3,33.4,109.4,33.4z"/>
	<path d="M135.1,37.8h-1.7c-2.7,0-4.7-0.7-6-2.2c-1.4-1.4-2-3.5-2-6.2v-8.3c0-2.7,0.7-4.8,2.2-6.2c1.5-1.4,3.6-2.2,6.3-2.2h11.9
		c0.8,0,1.1,0.4,1.1,1.1v25.4c0,2.7-0.7,4.7-2.2,6.2c-1.5,1.4-3.6,2.2-6.3,2.2h-9.9c-0.4,0-0.7-0.1-0.9-0.2
		c-0.2-0.2-0.2-0.4-0.2-0.8V43c0-0.7,0.4-1.1,1.1-1.1h8.8c1.1,0,1.9-0.2,2.3-0.7c0.5-0.5,0.7-1.2,0.7-2.3V35h-0.2
		c-0.4,0.9-1.1,1.6-2,2.1C137.2,37.6,136.1,37.8,135.1,37.8z M140.3,28.2v-9.3c0-0.4-0.2-0.6-0.6-0.6h-4.9c-1.1,0-1.9,0.2-2.3,0.7
		c-0.4,0.5-0.7,1.2-0.7,2.3v7.7c0,1.1,0.2,1.9,0.7,2.3c0.4,0.4,1.2,0.7,2.3,0.7h1.9C139.2,32.1,140.3,30.8,140.3,28.2z"/>
	<path d="M160.5,39h-1.7c-2.6,0-4.7-0.7-6-2.2c-1.4-1.4-2-3.5-2-6.2V13.7c0-0.7,0.4-1.1,1.1-1.1h4.4c0.7,0,1.1,0.4,1.1,1.1v16.5
		c0,1.1,0.2,1.9,0.7,2.3c0.5,0.5,1.2,0.7,2.3,0.7h1.9c2.4,0,3.6-1.3,3.6-3.9V13.7c0-0.7,0.4-1.1,1.1-1.1h4.3c0.8,0,1.1,0.4,1.1,1.1
		v24.2c0,0.7-0.4,1.1-1.1,1.1h-4.3c-0.7,0-1.1-0.4-1.1-1.1v-1.7h-0.2c-0.4,0.9-1.1,1.6-2,2.1C162.6,38.7,161.6,39,160.5,39z"/>
	<path d="M181.6,46h-4.4c-0.7,0-1.1-0.3-1.1-1V13.7c0-0.7,0.4-1.1,1.1-1.1h4.4c0.7,0,1.1,0.4,1.1,1.1v1.7h0.2c0.4-0.9,1-1.6,2-2.1
		c1-0.5,2-0.7,3-0.7h2.1c2.6,0,4.7,0.7,6,2.2c1.4,1.4,2,3.5,2,6.2v9.5c0,2.7-0.7,4.8-2,6.2c-1.4,1.4-3.4,2.2-6,2.2H188
		c-1.1,0-2.1-0.2-3-0.7c-1-0.5-1.6-1.2-2-2.1h-0.2V45C182.7,45.7,182.3,46,181.6,46z M186.3,33.3h2.3c1.1,0,1.9-0.2,2.3-0.7
		c0.5-0.5,0.7-1.2,0.7-2.3v-8.9c0-1.1-0.2-1.9-0.7-2.3c-0.5-0.5-1.2-0.7-2.3-0.7h-2.3c-2.4,0-3.6,1.3-3.6,3.9v7.1
		C182.7,32,183.9,33.3,186.3,33.3z"/>
</g>
</svg>
